# xmcd CD database file generated by OrangeCD 6.1
#
# Track frame offsets:
#	150
#	19831
#	34594
#	55336
#	77914
#	98931
#	120619
#	140808
#
# Disc length: 2167 seconds
#
# Revision: 2
# Processed by: cddbd v1.5.2PL0 Copyright (c) Steve Scherf et al.
# Submitted via: OrangeCD 6.1
#
DISCID=6a087508
DTITLE=Various Artist - Covered in Blues: Songs of the Rolling Stones
DYEAR=2003
DGENRE=Blues
TTITLE0=Midnight Rambler - Larry McCray
TTITLE1=It's All Over Now - Bobby Womack
TTITLE2=Ventilator Blues - Clarence "Gatemouth" Brown
TTITLE3=Wild Horses - Otis Clay
TTITLE4=You Can't Always Get What You Want - Luther Allison
TTITLE5=(I Can't Get No) Satisfaction - Junior Wells
TTITLE6=Moonlight Mile - Alvin "Youngblood" Hart
TTITLE7=Beast of Burden - Holmes Brothers
EXTD=
EXTT0=
EXTT1=
EXTT2=
EXTT3=
EXTT4=
EXTT5=
EXTT6=
EXTT7=
PLAYORDER=
